<svg width="200" height="29" viewBox="0 0 200 29" fill="none" xmlns="http://www.w3.org/2000/svg">
<path d="M0.502646 22.3825V6.7118H3.34111V22.3825H0.502646ZM1.92188 3.69592C1.36996 3.69592 0.906733 3.51852 0.532213 3.16371C0.177404 2.8089 0 2.37525 0 1.86275C0 1.33053 0.177404 0.887022 0.532213 0.532213C0.906733 0.177404 1.36996 0 1.92188 0C2.4738 0 2.92717 0.177404 3.28198 0.532213C3.6565 0.867309 3.84376 1.29111 3.84376 1.80361C3.84376 2.33582 3.66636 2.78919 3.31155 3.16371C2.95674 3.51852 2.49352 3.69592 1.92188 3.69592Z" fill="#FCFCFC"/>
<path d="M15.6204 28.296C14.1814 28.296 12.7819 28.089 11.4218 27.6751C10.0814 27.2808 8.9874 26.7092 8.13981 25.9602L9.49991 23.7722C10.2292 24.4029 11.1261 24.8957 12.1905 25.2505C13.255 25.6251 14.3687 25.8123 15.5317 25.8123C17.3845 25.8123 18.7446 25.3787 19.6119 24.5114C20.4793 23.644 20.9129 22.3234 20.9129 20.5493V17.2378L21.2086 14.1332L21.0608 10.9991V6.7118H23.7514V20.2537C23.7514 23.0133 23.0615 25.0436 21.6817 26.3445C20.3019 27.6455 18.2814 28.296 15.6204 28.296ZM15.2655 21.732C13.7478 21.732 12.3877 21.4166 11.1852 20.7859C10.0026 20.1354 9.0564 19.2385 8.34678 18.0952C7.65687 16.952 7.31192 15.6313 7.31192 14.1332C7.31192 12.6154 7.65687 11.2947 8.34678 10.1712C9.0564 9.02791 10.0026 8.14089 11.1852 7.51012C12.3877 6.87934 13.7478 6.56396 15.2655 6.56396C16.6059 6.56396 17.8281 6.83992 18.9319 7.39185C20.0357 7.92406 20.9129 8.75195 21.5634 9.87551C22.2336 10.9991 22.5687 12.4183 22.5687 14.1332C22.5687 15.8284 22.2336 17.2378 21.5634 18.3613C20.9129 19.4849 20.0357 20.3325 18.9319 20.9041C17.8281 21.4561 16.6059 21.732 15.2655 21.732ZM15.5908 19.2484C16.6355 19.2484 17.5619 19.0315 18.3701 18.5979C19.1783 18.1642 19.8091 17.563 20.2624 16.7943C20.7355 16.0255 20.972 15.1385 20.972 14.1332C20.972 13.1279 20.7355 12.2409 20.2624 11.4721C19.8091 10.7034 19.1783 10.112 18.3701 9.6981C17.5619 9.26445 16.6355 9.04762 15.5908 9.04762C14.5461 9.04762 13.6098 9.26445 12.7819 9.6981C11.9737 10.112 11.3331 10.7034 10.86 11.4721C10.4066 12.2409 10.18 13.1279 10.18 14.1332C10.18 15.1385 10.4066 16.0255 10.86 16.7943C11.3331 17.563 11.9737 18.1642 12.7819 18.5979C13.6098 19.0315 14.5461 19.2484 15.5908 19.2484Z" fill="#FCFCFC"/>
<path d="M35.8867 22.5599C34.3098 22.5599 32.9103 22.215 31.6881 21.5251C30.466 20.8351 29.5002 19.889 28.7905 18.6866C28.0809 17.4645 27.7261 16.0847 27.7261 14.5472C27.7261 12.9899 28.0809 11.6101 28.7905 10.4077C29.5002 9.20531 30.466 8.26901 31.6881 7.59882C32.9103 6.90891 34.3098 6.56396 35.8867 6.56396C37.4439 6.56396 38.8336 6.90891 40.0557 7.59882C41.2975 8.26901 42.2634 9.20531 42.9533 10.4077C43.6629 11.5904 44.0177 12.9702 44.0177 14.5472C44.0177 16.1044 43.6629 17.4842 42.9533 18.6866C42.2634 19.889 41.2975 20.8351 40.0557 21.5251C38.8336 22.215 37.4439 22.5599 35.8867 22.5599ZM35.8867 20.0763C36.892 20.0763 37.7889 19.8496 38.5773 19.3962C39.3855 18.9428 40.0163 18.3022 40.4697 17.4743C40.923 16.6267 41.1497 15.651 41.1497 14.5472C41.1497 13.4236 40.923 12.4577 40.4697 11.6495C40.0163 10.8217 39.3855 10.181 38.5773 9.72767C37.7889 9.2743 36.892 9.04762 35.8867 9.04762C34.8814 9.04762 33.9845 9.2743 33.1961 9.72767C32.4076 10.181 31.7768 10.8217 31.3038 11.6495C30.8307 12.4577 30.5942 13.4236 30.5942 14.5472C30.5942 15.651 30.8307 16.6267 31.3038 17.4743C31.7768 18.3022 32.4076 18.9428 33.1961 19.3962C33.9845 19.8496 34.8814 20.0763 35.8867 20.0763Z" fill="#FCFCFC"/>
<path d="M47.9433 22.3825V6.7118H50.6635V10.9695L50.3974 9.90507C50.831 8.82094 51.5603 7.99305 52.5854 7.42141C53.6104 6.84978 54.8719 6.56396 56.37 6.56396V9.31373C56.2517 9.29401 56.1334 9.28416 56.0152 9.28416C55.9166 9.28416 55.8181 9.28416 55.7195 9.28416C54.2017 9.28416 52.9993 9.73752 52.1123 10.6443C51.2253 11.551 50.7817 12.8618 50.7817 14.5767V22.3825H47.9433Z" fill="#FCFCFC"/>
<path d="M87.6142 6.56396C88.8757 6.56396 89.9894 6.81035 90.9553 7.30314C91.9211 7.79593 92.6702 8.54497 93.2024 9.55026C93.7543 10.5556 94.0303 11.827 94.0303 13.3645V22.3825H91.1918V13.6897C91.1918 12.1719 90.837 11.0286 90.1274 10.2599C89.4178 9.49113 88.4223 9.10675 87.1411 9.10675C86.1949 9.10675 85.367 9.30387 84.6574 9.6981C83.9478 10.0923 83.3959 10.6738 83.0016 11.4426C82.6271 12.2113 82.4399 13.1673 82.4399 14.3106V22.3825H79.6014V13.6897C79.6014 12.1719 79.2466 11.0286 78.537 10.2599C77.8471 9.49113 76.8516 9.10675 75.5507 9.10675C74.6242 9.10675 73.8062 9.30387 73.0966 9.6981C72.3869 10.0923 71.835 10.6738 71.4408 11.4426C71.0466 12.2113 70.8494 13.1673 70.8494 14.3106V22.3825H68.011V6.7118H70.7312V10.8808L70.2877 9.81637C70.7805 8.79137 71.5394 7.99305 72.5644 7.42141C73.5894 6.84978 74.7819 6.56396 76.142 6.56396C77.6401 6.56396 78.9312 6.93848 80.0153 7.68752C81.0995 8.41685 81.8091 9.53055 82.1442 11.0286L80.9911 10.5556C81.4641 9.35315 82.292 8.38728 83.4747 7.65795C84.6574 6.92862 86.0372 6.56396 87.6142 6.56396Z" fill="#FCFCFC"/>
<path d="M106.231 22.5599C104.555 22.5599 103.077 22.215 101.796 21.5251C100.534 20.8351 99.5487 19.889 98.8391 18.6866C98.1492 17.4842 97.8043 16.1044 97.8043 14.5472C97.8043 12.9899 98.1394 11.6101 98.8096 10.4077C99.4995 9.20531 100.436 8.26901 101.618 7.59882C102.821 6.90891 104.171 6.56396 105.669 6.56396C107.187 6.56396 108.527 6.89906 109.69 7.56925C110.853 8.23944 111.76 9.1856 112.411 10.4077C113.081 11.6101 113.416 13.0195 113.416 14.6359C113.416 14.7541 113.406 14.8921 113.386 15.0498C113.386 15.2075 113.376 15.3553 113.357 15.4933H100.022V13.4532H111.878L110.725 14.1628C110.745 13.1575 110.538 12.2606 110.104 11.4721C109.671 10.6837 109.069 10.0726 108.301 9.63897C107.552 9.1856 106.674 8.95892 105.669 8.95892C104.684 8.95892 103.806 9.1856 103.038 9.63897C102.269 10.0726 101.668 10.6935 101.234 11.5017C100.8 12.2902 100.584 13.1969 100.584 14.2219V14.695C100.584 15.7397 100.82 16.676 101.293 17.5039C101.786 18.3121 102.466 18.9428 103.333 19.3962C104.201 19.8496 105.196 20.0763 106.32 20.0763C107.246 20.0763 108.084 19.9186 108.833 19.6032C109.602 19.2878 110.272 18.8147 110.843 18.1839L112.411 20.0171C111.701 20.845 110.814 21.4758 109.749 21.9094C108.705 22.3431 107.532 22.5599 106.231 22.5599Z" fill="#FCFCFC"/>
<path d="M125.725 6.56396C127.006 6.56396 128.13 6.81035 129.096 7.30314C130.081 7.79593 130.85 8.54497 131.402 9.55026C131.954 10.5556 132.23 11.827 132.23 13.3645V22.3825H129.391V13.6897C129.391 12.1719 129.017 11.0286 128.268 10.2599C127.538 9.49113 126.503 9.10675 125.163 9.10675C124.158 9.10675 123.281 9.30387 122.532 9.6981C121.783 10.0923 121.201 10.6738 120.787 11.4426C120.393 12.2113 120.196 13.1673 120.196 14.3106V22.3825H117.357V6.7118H120.078V10.9399L119.634 9.81637C120.146 8.79137 120.935 7.99305 121.999 7.42141C123.064 6.84978 124.306 6.56396 125.725 6.56396Z" fill="#FCFCFC"/>
<path d="M144.461 22.5599C142.785 22.5599 141.307 22.215 140.026 21.5251C138.764 20.8351 137.778 19.889 137.069 18.6866C136.379 17.4842 136.034 16.1044 136.034 14.5472C136.034 12.9899 136.369 11.6101 137.039 10.4077C137.729 9.20531 138.665 8.26901 139.848 7.59882C141.051 6.90891 142.401 6.56396 143.899 6.56396C145.417 6.56396 146.757 6.89906 147.92 7.56925C149.083 8.23944 149.99 9.1856 150.64 10.4077C151.31 11.6101 151.646 13.0195 151.646 14.6359C151.646 14.7541 151.636 14.8921 151.616 15.0498C151.616 15.2075 151.606 15.3553 151.586 15.4933H138.252V13.4532H150.108L148.955 14.1628C148.975 13.1575 148.768 12.2606 148.334 11.4721C147.9 10.6837 147.299 10.0726 146.53 9.63897C145.781 9.1856 144.904 8.95892 143.899 8.95892C142.913 8.95892 142.036 9.1856 141.267 9.63897C140.499 10.0726 139.897 10.6935 139.464 11.5017C139.03 12.2902 138.813 13.1969 138.813 14.2219V14.695C138.813 15.7397 139.05 16.676 139.523 17.5039C140.016 18.3121 140.696 18.9428 141.563 19.3962C142.43 19.8496 143.426 20.0763 144.549 20.0763C145.476 20.0763 146.314 19.9186 147.063 19.6032C147.831 19.2878 148.502 18.8147 149.073 18.1839L150.64 20.0171C149.931 20.845 149.044 21.4758 147.979 21.9094C146.934 22.3431 145.762 22.5599 144.461 22.5599Z" fill="#FCFCFC"/>
<path d="M153.935 22.3825V20.5493L163.988 8.0719L164.549 9.04762H154.112V6.7118H166.826V8.57454L156.773 21.0224L156.123 20.0467H167.063V22.3825H153.935Z" fill="#FCFCFC"/>
<path d="M177.608 22.5599C175.933 22.5599 174.455 22.215 173.173 21.5251C171.912 20.8351 170.926 19.889 170.217 18.6866C169.527 17.4842 169.182 16.1044 169.182 14.5472C169.182 12.9899 169.517 11.6101 170.187 10.4077C170.877 9.20531 171.813 8.26901 172.996 7.59882C174.198 6.90891 175.549 6.56396 177.047 6.56396C178.564 6.56396 179.905 6.89906 181.068 7.56925C182.231 8.23944 183.138 9.1856 183.788 10.4077C184.458 11.6101 184.793 13.0195 184.793 14.6359C184.793 14.7541 184.783 14.8921 184.764 15.0498C184.764 15.2075 184.754 15.3553 184.734 15.4933H171.399V13.4532H183.256L182.103 14.1628C182.122 13.1575 181.915 12.2606 181.482 11.4721C181.048 10.6837 180.447 10.0726 179.678 9.63897C178.929 9.1856 178.052 8.95892 177.047 8.95892C176.061 8.95892 175.184 9.1856 174.415 9.63897C173.646 10.0726 173.045 10.6935 172.612 11.5017C172.178 12.2902 171.961 13.1969 171.961 14.2219V14.695C171.961 15.7397 172.198 16.676 172.671 17.5039C173.163 18.3121 173.844 18.9428 174.711 19.3962C175.578 19.8496 176.574 20.0763 177.697 20.0763C178.624 20.0763 179.461 19.9186 180.21 19.6032C180.979 19.2878 181.649 18.8147 182.221 18.1839L183.788 20.0171C183.078 20.845 182.191 21.4758 181.127 21.9094C180.082 22.3431 178.909 22.5599 177.608 22.5599Z" fill="#FCFCFC"/>
<path d="M193.229 22.5599C191.928 22.5599 190.686 22.3825 189.504 22.0277C188.341 21.6729 187.424 21.2392 186.754 20.7267L187.936 18.4796C188.607 18.933 189.435 19.3174 190.42 19.6327C191.406 19.9481 192.411 20.1058 193.436 20.1058C194.757 20.1058 195.703 19.9186 196.275 19.544C196.866 19.1695 197.162 18.6472 197.162 17.977C197.162 17.4842 196.984 17.0998 196.629 16.8238C196.274 16.5479 195.801 16.3409 195.21 16.2029C194.638 16.0649 193.998 15.9467 193.288 15.8481C192.579 15.7298 191.869 15.5919 191.159 15.4342C190.45 15.2568 189.799 15.0202 189.208 14.7246C188.617 14.4092 188.143 13.9854 187.789 13.4532C187.434 12.9012 187.256 12.1719 187.256 11.2652C187.256 10.319 187.523 9.49113 188.055 8.78151C188.587 8.0719 189.336 7.52983 190.302 7.15531C191.287 6.76107 192.45 6.56396 193.791 6.56396C194.816 6.56396 195.851 6.69208 196.895 6.94834C197.96 7.18487 198.827 7.52983 199.497 7.98319L198.285 10.2303C197.575 9.75724 196.836 9.432 196.068 9.25459C195.299 9.07719 194.53 8.98848 193.761 8.98848C192.519 8.98848 191.593 9.19546 190.982 9.6094C190.371 10.0036 190.065 10.5161 190.065 11.1469C190.065 11.6791 190.243 12.0931 190.598 12.3887C190.972 12.6647 191.445 12.8815 192.017 13.0392C192.608 13.1969 193.259 13.3349 193.968 13.4532C194.678 13.5517 195.387 13.6897 196.097 13.8671C196.807 14.0248 197.447 14.2515 198.019 14.5472C198.61 14.8428 199.083 15.2568 199.438 15.789C199.813 16.3212 200 17.0308 200 17.9178C200 18.864 199.724 19.682 199.172 20.3719C198.62 21.0618 197.842 21.6039 196.836 21.9981C195.831 22.3727 194.629 22.5599 193.229 22.5599Z" fill="#FCFCFC"/>
</svg>
