<svg width="159" height="76" viewBox="0 0 159 76" fill="none" xmlns="http://www.w3.org/2000/svg">
<path d="M1.9 74.4H12.4V25.3H1.9V74.4ZM0 7C0 10.9 3.2 13.9 7.2 13.9C11.1 13.9 14.3 10.9 14.3 7C14.3 3.1 11.1 0 7.2 0C3.2 0 0 3.1 0 7Z" fill="#FCFCFC"/>
<path d="M26.1836 67.8C26.1836 72.2 29.6836 75.5 34.0836 75.5C38.4836 75.5 41.7836 72.2 41.7836 67.8C41.7836 63.3 38.4836 60 34.0836 60C29.6836 60 26.1836 63.4 26.1836 67.8Z" fill="#FCFCFC"/>
<path d="M129.311 43.7C129.311 32 122.411 24.2 111.111 24.2C104.211 24.2 98.1109 27.2 94.5109 31.9C91.6109 27.1 86.4109 24.2 79.6109 24.2C73.7109 24.2 68.9109 26.3 65.4109 29.9V25.3H55.6109V74.4H66.1109V45.2C66.1109 38.4 70.5109 33.8 76.9109 33.8C83.2109 33.8 87.2109 38.4 87.2109 45.2V74.4H97.7109V44.7C97.7109 38.4 102.111 33.8 108.511 33.8C114.811 33.8 118.711 38.3 118.711 45.2V74.4H129.311V43.7Z" fill="#FCFCFC"/>
<path d="M142.492 67.8C142.492 72.2 145.992 75.5 150.392 75.5C154.792 75.5 158.092 72.2 158.092 67.8C158.092 63.3 154.792 60 150.392 60C145.992 60 142.492 63.4 142.492 67.8Z" fill="#FCFCFC"/>
</svg>
